<?xml version="1.0" encoding="utf-8"?>
<!-- Generator: Adobe Illustrator 19.2.1, SVG Export Plug-In . SVG Version: 6.00 Build 0)  -->
<svg version="1.1" id="layer" xmlns="http://www.w3.org/2000/svg" xmlns:xlink="http://www.w3.org/1999/xlink" x="0px" y="0px"
	 viewBox="0 0 652 652" style="enable-background:new 0 0 652 652;" xml:space="preserve">
<style type="text/css">
	.st0{fill:#009A73;}
	.st1{fill:#104778;}
	.st2{fill-rule:evenodd;clip-rule:evenodd;fill:#009A73;}
	.st3{fill-rule:evenodd;clip-rule:evenodd;fill:#104778;}
</style>
<g>
	<path class="st0" d="M285,556.7c0-1.8,1.3-2.6,2.6-2.6c2.9,0,4.6,2.4,5.1,4.8h0.7l-0.4-6h-0.7c0,0.4-0.2,0.9-0.9,0.9
		c-0.7,0-2.2-0.9-3.8-0.9c-2.6,0-5.1,1.6-5.1,4.6c0,2.7,1.8,4,4.2,5.3c4.2,2.4,4.6,3.3,4.6,4.9c0,1.5-1.1,3.1-3.3,3.1
		c-3.7,0-5.1-3.5-5.7-4.9h-0.4l0.7,5.7h0.7c0-0.4,0.2-0.9,0.9-0.9c0.9,0,2.2,0.9,4.2,0.9c4,0,5.7-2.4,5.7-4.9
		C294,561.3,285,560.7,285,556.7 M252.3,553.8c2.2,0.2,2.6,0.5,2.6,2.4v12.1c0,2-0.4,2.4-2.6,2.4v0.7h7.9v-0.7c-2,0-2.6-0.2-2.6-2.4
		v-12.1c0-2,0.7-2.2,2.6-2.4v-0.4h-7.9V553.8z M273.7,553.8c1.8,0.2,2.7,0.4,2.7,3.5v9l-10.6-13h-4.6v0.4c1.1,0,1.5,0.2,2.6,1.6
		v12.1c0,2.9-0.4,3.3-2.6,3.3v0.7h6.4v-0.7c-2,0-2.4-0.7-2.4-3.3v-10.8l11.9,15h0.4v-14.3c0-3.1,0.9-3.3,2.6-3.5v-0.4h-6.4V553.8z
		 M313.2,553.8c2.2,0.2,2.6,0.5,2.6,2.4v12.1c0,2-0.4,2.4-2.6,2.4v0.7h7.9v-0.7c-2,0-2.6-0.2-2.6-2.4v-12.1c0-2,0.7-2.2,2.6-2.4
		v-0.4h-7.9V553.8z M296.5,553.4v4.6h0.7c0.4-2.9,1.3-3.5,4.2-3.5h1.5v13.7c0,2-0.2,2.6-2.6,2.6v0.7h7.9v-0.7
		c-2.2,0-2.6-0.4-2.6-2.4v-13.9h1.5c3.1,0,3.8,0.4,4.4,3.5h0.7l-0.2-4.6H296.5z M358.7,558h0.7c0.7-2.9,1.3-3.5,4.4-3.5h1.5v13.7
		c0,2-0.2,2.6-2.7,2.6v0.7h7.9v-0.7c-2.2,0-2.6-0.4-2.6-2.4v-13.9h1.5c2.9,0,3.8,0.4,4.2,3.5h0.7v-4.6h-15.4L358.7,558z
		 M390.4,566.9c-1.1,2.6-2.4,3.5-6,3.5c-4,0-4,0-4-1.1v-6.8h4.2c2.2,0.2,2.6,0.5,3.1,2.7h0.4v-6.2h-0.4c-0.4,1.8-0.7,2.4-3.1,2.4
		h-4.2v-5.9c0-0.9,0.2-0.9,0.9-0.9h3.7c2.9,0,3.8,0.4,4,2.9h0.9l-0.2-4h-14.3v0.4c1.5,0.2,2.2,0.4,2.2,2.4v12.1
		c0,2.2-0.4,2.4-2.2,2.4v0.7H390l1.3-4.6H390.4z M322.5,553.4l-0.2,4.6h0.7c0.7-2.9,1.3-3.5,4.2-3.5h1.6v13.7c0,2,0,2.6-2.7,2.6v0.7
		h7.9v-0.7c-2.2,0-2.4-0.4-2.4-2.4v-13.9h1.3c3.1,0,3.7,0.4,4.4,3.5h0.6l-0.2-4.6H322.5z M351.4,553.8c2,0.2,2.7,0.7,2.7,3.5v7.3
		c0,2.2-0.4,3.1-0.7,3.8c-0.9,1.3-2.4,2.2-4.6,2.2c-4.6,0-4.6-3.8-4.6-5.5v-8.8c0-1.8,0.4-2.2,2.4-2.4v-0.4h-7.7v0.4
		c2.2,0.2,2.4,0.4,2.4,2.4v8.6c0,1.5,0,6.8,6.8,6.8c7.1,0,7.1-5.1,7.1-7.3v-7.1c0-2.9,0.4-3.3,2.6-3.5v-0.4h-6.4V553.8z"/>
	<path class="st0" d="M298.7,438.5l-6.8-15.4h-0.4l-5.7,13.2c-0.4,1.3-1.3,3.3-2,4c-0.4,0.4-0.9,0.4-1.3,0.6v0.4h5.3v-0.4
		c-0.4,0-1.8,0-1.8-1.3c0-0.2,0-0.6,0.2-0.9l1.3-3.3h7.1l1.1,2.6c0.2,0.4,0.4,1.3,0.4,1.8c0,0.9-0.9,1.1-1.8,1.1v0.4h6.8v-0.4
		C300,440.7,299.5,440.5,298.7,438.5 M287.8,434.3l3.1-7.5l3.1,7.5H287.8z M189.5,426.6c0-1.8,1.3-2.4,2.9-2.4
		c2.9,0,4.4,2.4,5.1,4.6h0.7l-0.7-5.7h-0.7c0,0.2-0.2,0.9-0.9,0.9c-0.7,0-2.2-0.9-3.8-0.9c-2.4,0-4.8,1.5-4.8,4.6
		c0,2.6,1.6,3.7,4.2,5.3c4,2.2,4.4,3.3,4.4,4.9c0,1.3-1.1,2.9-3.3,2.9c-3.7,0-5.1-3.5-5.5-4.9h-0.7l0.9,6h0.4c0-0.4,0.4-1.1,0.9-1.1
		c0.9,0,2.2,1.1,4.2,1.1c4,0,5.8-2.6,5.8-5.1C198.5,431.2,189.5,430.8,189.5,426.6 M268.2,423.9c2.2,0,2.4,0.4,2.4,2.4v5.3h-8.2
		v-5.3c0-2,0.2-2.4,2.4-2.4v-0.7h-7.7v0.7c2.2,0,2.4,0.4,2.4,2.4v11.7c0,2,0,2.6-2.4,2.9v0.4h7.7v-0.4c-2.2-0.2-2.4-0.7-2.4-2.6
		v-5.5h8.2v5.3c0,2,0,2.6-2.4,2.9v0.4h7.7v-0.4c-2.2-0.2-2.4-0.7-2.4-2.6v-11.9c0-2,0.2-2.4,2.4-2.4v-0.7h-7.7V423.9z M210.2,423
		c-4.4,0-8.8,3.1-8.8,9.3c0,6,4,9.5,8.8,9.5c5.1,0,9-3.5,9-9.5C219.3,426.1,214.8,423,210.2,423 M210.2,440.7
		c-2.9,0-5.7-2.4-5.7-8.4c0-6.2,3.1-8.4,5.7-8.4c2.9,0,6,2.2,6,8.4C216.2,438.3,213.3,440.7,210.2,440.7 M233.2,423.9
		c1.8,0,2.4,0.4,2.4,3.3v7.5c0,2.2-0.2,3.1-0.4,3.5c-0.9,1.3-2.4,2.2-4.6,2.2c-4.6,0-4.6-3.8-4.6-5.5v-8.6c0-2,0.2-2.4,2.4-2.4v-0.7
		h-7.7v0.7c2.2,0,2.4,0.4,2.4,2.4v8.4c0,1.8,0,7.1,6.8,7.1c7.1,0,7.1-5.3,7.1-7.3v-7.3c0-2.6,0.4-3.1,2.4-3.3v-0.7h-6.2V423.9z
		 M240.4,427.9h0.7c0.7-2.9,1.3-3.3,4.4-3.3h1.5V438c0,2-0.2,2.7-2.6,2.9v0.4h7.9v-0.4c-2.2-0.2-2.6-0.7-2.6-2.6v-13.7h1.5
		c2.9,0,3.7,0.4,4.2,3.3h0.7v-4.6h-15.5L240.4,427.9z M313,423.9c2,0,2.6,0.4,2.6,3.3v7.5c0,2.2-0.2,3.1-0.7,3.5
		c-0.9,1.3-2.4,2.2-4.4,2.2c-4.9,0-4.9-3.8-4.9-5.5v-8.6c0-2,0.4-2.4,2.7-2.4v-0.7h-7.7v0.7c2,0,2.4,0.4,2.4,2.4v8.4
		c0,1.8,0,7.1,6.6,7.1c7.1,0,7.1-5.3,7.1-7.3v-7.3c0-2.6,0.4-3.1,2.6-3.3v-0.7H313V423.9z M398.1,440.3c-2.2,0-2.6,0-2.6-1.1v-12.8
		c0-2.2,0.7-2.4,2.4-2.4v-0.7h-7.5v0.7c1.5,0,2.2,0.2,2.2,2.4v11.9c0,2.2-0.4,2.4-2.2,2.6v0.4H405l1.3-4.8h-0.7
		C404.1,440.3,402.3,440.3,398.1,440.3 M432.5,438.5l-6.6-15.4h-0.7l-5.5,13.2c-0.7,1.3-1.6,3.3-2,4c-0.7,0.4-1.1,0.4-1.6,0.6v0.4
		h5.5v-0.4c-0.7,0-2,0-2-1.3c0-0.2,0.2-0.6,0.2-0.9l1.3-3.3h7.1l1.1,2.6c0.2,0.4,0.7,1.3,0.7,1.8c0,0.9-0.9,1.1-2,1.1v0.4h6.8v-0.4
		C433.9,440.7,433.4,440.5,432.5,438.5 M421.7,434.3l3.1-7.5l3.1,7.5H421.7z M407.2,423.9c2.2,0,2.6,0.4,2.6,2.4v11.9
		c0,2-0.2,2.4-2.6,2.6v0.4h8.2v-0.4c-2-0.2-2.6-0.4-2.6-2.6v-11.9c0-2.2,0.7-2.4,2.6-2.4v-0.7h-8.2V423.9z M448.4,423.3v0.7
		c2,0,2.6,0.2,2.6,3.3v9.3l-10.4-13.2h-4.6v0.7c0.9,0,1.3,0,2.7,1.3v12.1c0,2.9-0.7,3.3-2.7,3.5v0.4h6.4v-0.4
		c-2-0.2-2.7-0.6-2.7-3.5v-10.6l11.9,14.8h0.7v-14.3c0-3.1,0.7-3.1,2.4-3.3v-0.7H448.4z M386.9,438.5l-6.6-15.4h-0.7l-5.5,13.2
		c-0.7,1.3-1.5,3.3-2,4c-0.7,0.4-1.1,0.4-1.5,0.6v0.4h5.5v-0.4c-0.7,0-2,0-2-1.3c0-0.2,0.2-0.6,0.2-0.9l1.3-3.3h7.1l1.1,2.6
		c0.2,0.4,0.7,1.3,0.7,1.8c0,0.9-0.9,1.1-2,1.1v0.4h6.8v-0.4C388.2,440.7,387.8,440.5,386.9,438.5 M376.1,434.3l3.1-7.5l3.3,7.5
		H376.1z M335.7,423.3v4.6h0.7c0.4-2.9,1.3-3.3,4.2-3.3h1.5V438c0,2,0,2.7-2.6,2.9v0.4h7.9v-0.4c-2.2-0.2-2.4-0.7-2.4-2.6v-13.7h1.3
		c3.1,0,3.8,0.4,4.4,3.3h0.7l-0.2-4.6H335.7z M362,432.8c1.3-0.4,4.8-1.1,4.8-4.6c0-4.2-4.4-4.9-6.8-4.9h-7.5v0.7
		c1.8,0.2,2.2,0.4,2.2,2.4v11.7c0,2,0,2.7-2.2,2.9v0.4h7.5v-0.4c-2.2-0.2-2.4-0.6-2.4-2.7V433h1.5l6.4,8.4h4.4v-0.4
		c-1.1-0.2-1.8-0.6-2.4-1.3L362,432.8z M357.5,432.1v-6.8c0-0.6,0.2-0.9,1.5-0.9c1.1,0,4.9,0,4.9,3.8
		C363.9,431.9,359.8,432.1,357.5,432.1 M324.2,426.6c0-1.8,1.3-2.4,2.6-2.4c2.9,0,4.6,2.4,5.1,4.6h0.7l-0.4-5.7h-0.7
		c0,0.2-0.2,0.9-0.9,0.9c-0.7,0-2.2-0.9-3.8-0.9c-2.4,0-5.1,1.5-5.1,4.6c0,2.6,1.8,3.7,4.4,5.3c4,2.2,4.4,3.3,4.4,4.9
		c0,1.3-1.1,2.9-3.3,2.9c-3.8,0-5.1-3.5-5.5-4.9h-0.7l0.7,6h0.7c0-0.4,0.2-1.1,0.9-1.1c0.9,0,2.2,1.1,4.2,1.1c4,0,5.7-2.6,5.7-5.1
		C333.3,431.2,324.2,430.8,324.2,426.6"/>
	<path class="st1" d="M457.2,471.3c0-7.7-3.1-16.3-12.8-16.3h-10.6v1.1c1.3,0.2,2.9,0.4,2.9,3.5v24.7c0,1.8-0.7,3.3-2.9,3.3v1.1h11
		C453.5,488.6,457.2,480.6,457.2,471.3 M442.5,484.1V459c0-1.1-0.2-2.4,2-2.4c6.2,0,6.8,10.8,6.8,15.4c0,11.9-3.1,15-6.8,15
		C442.7,487,442.5,486.1,442.5,484.1 M195.7,487.7c-2.2-0.4-3.1-0.7-3.1-4.6v-9.9h1.1l7,15.7h7.1v-1.1c-0.4,0-0.9,0-1.3-1.1
		l-7.1-14.1c2-0.9,5.5-2.4,5.5-8.6c0-8.6-7.3-8.8-9.7-8.8H184v1.1c2,0.2,3.1,0.4,3.1,4.6V483c0,4-0.7,4.2-3.1,4.6v1.1h11.7V487.7z
		 M192.6,458.8c0.2-1.6,0.2-2.2,2.2-2.2c2.9,0,4.2,2.2,4.2,7.3c0,6.6-1.7,7.7-6.4,7.7V458.8z M230.5,478.4h-1.1
		c-2.2,7.5-5.7,8.8-9,8.8c-2.2,0-2.9-0.4-2.9-2.7v-12.1c3.3,0,5.1,1.3,5.5,7.7h0.9v-17H223c-0.4,6.2-2.2,7.5-5.5,7.5V459
		c0-2.2,0.6-2.4,2.4-2.4c4.6,0,7.3,1.3,8,8.4h0.9V455h-20.1v1.1c1.8,0.2,3.1,0.2,3.1,3.5v24.5c0,3.1-1.1,3.1-3.1,3.5v1.1H229
		L230.5,478.4z M195.2,505.5h-10.6v1.3c1.3,0.2,2.9,0.2,2.9,3.3v24.7c0,2-0.7,3.3-2.9,3.3v1.3h11c8.6-0.4,12.3-8.2,12.3-17.4
		C208,514.4,204.9,505.5,195.2,505.5 M195,537.7c-1.5,0-2-0.9-2-2.9v-25.4c0-1.1,0-2.2,2.2-2.2c6,0,6.8,10.6,6.8,15.2
		C202.1,534.4,199,537.7,195,537.7 M273.1,478.4H272c-2.2,7.5-5.7,8.8-9,8.8c-2.2,0-2.9-0.4-2.9-2.7v-12.1c3.3,0,5.1,1.3,5.5,7.7
		h0.9v-17h-0.9c-0.4,6.2-2.2,7.5-5.5,7.5V459c0-2.2,0.4-2.4,2.4-2.4c4.6,0,7.1,1.3,7.9,8.4h0.9V455h-20.1v1.1
		c1.8,0.2,3.1,0.2,3.1,3.5v24.5c0,3.1-1.1,3.1-3.1,3.5v1.1h20.3L273.1,478.4z M361.7,487.7c-1.8-0.4-3.1-0.7-3.1-3.5v-11.7h8.4v11.7
		c0,2.9-1.3,3.1-3.1,3.5v1.1h11.7v-1.1c-1.8-0.4-3.1-0.7-3.1-3.5v-24.5c0-3.1,1.5-3.3,3.1-3.5V455h-11.7v1.1
		c1.5,0.2,3.1,0.2,3.1,3.5v10.6h-8.4v-10.6c0-3.3,1.5-3.3,3.1-3.5V455h-11.7v1.1c1.5,0.2,3.1,0.4,3.1,3.5v24.5
		c0,2.9-1.1,3.1-3.1,3.5v1.1h11.7V487.7z M221.5,538c-2.2,0-2.9-0.7-2.9-2.9V523c3.3,0,5.1,1.6,5.5,7.7h0.9v-17h-0.9
		c-0.4,6.4-2.2,7.7-5.5,7.5v-11.7c0-2,0.7-2.2,2.4-2.2c4.6,0,7.3,1.1,7.9,8.4h0.9v-10.1h-20.1v1.3c1.8,0,3.1,0.2,3.1,3.5v24.3
		c0,3.1-1.1,3.3-3.1,3.5v1.3h20.3l1.5-10.4h-1.1C228.3,536.7,224.8,538,221.5,538 M390.4,487.7c-1.1-0.2-2.6-0.2-2.6-2.2
		c0-0.9,0.4-2.9,1.3-6.4h7.9c0.4,1.5,1.5,5.3,1.5,6.6c0,1.5-0.7,1.8-2.9,2v1.1H407v-1.1c-1.5,0-2.2-1.8-3.7-7.1l-7.7-26.5h-0.9
		l-7.7,27.6c-1.1,3.7-1.5,5.5-3.3,6v1.1h6.8V487.7z M393.1,464.7l3.3,12.3h-6.6L393.1,464.7z M311.7,487.7c-2.2-0.4-3.1-0.7-3.1-4.6
		v-9.9h1.1l7.1,15.7h7.1v-1.1c-0.2,0-0.9,0-1.3-1.1l-7.1-14.1c2-0.9,5.5-2.4,5.5-8.6c0-8.6-7.3-8.8-9.7-8.8H300v1.1
		c2,0.2,3.1,0.4,3.1,4.6V483c0,4-0.7,4.2-3.1,4.6v1.1h11.7V487.7z M308.6,458.8c0.2-1.6,0.4-2.2,2.2-2.2c2.9,0,4.2,2.2,4.2,7.3
		c0,6.6-1.8,7.7-6.4,7.7V458.8z M369,529.1l-6.8-23.6h-8.8v1.3c2.4,0.2,3.1,0.9,3.1,3.5v23.8c0,2.9-0.4,3.7-3.1,4v1.3h8.2v-1.3
		c-2.9-0.2-3.5-1.3-3.5-4.8V510l8.6,29.5h1.1l8.6-30.4v25.4c0,3.3-0.9,3.5-3.1,3.8v1.3h11.5v-1.3c-2.2-0.4-2.9-0.7-2.9-4.6v-22.1
		c0-4.4,1.1-4.4,2.9-4.6v-1.3h-8.6L369,529.1z M435.4,515.7h0.9c0.9-8.1,4.4-8.4,6.8-8.6v26.4c0,4.2-0.9,4.4-3.3,4.6v1.3h12.4v-1.3
		c-2.6-0.2-3.5-0.2-3.5-4.6v-26.4c2.4,0.2,6,0.4,6.6,8.6h1.1v-10.1h-21V515.7z M416.7,487.7c-2.4-0.4-3.3-1.3-3.3-5.1v-20.1h0.2
		l15.4,27.4h0.9v-29.8c0-2.2,0.2-3.5,2.6-4V455H425v1.1c2.9,0.4,3.3,2,3.3,5.1v15.2L416.2,455h-7.3v1.1c0.4,0,1.1,0.2,2.9,3.8v23.8
		c0,3.3-0.9,3.5-2.9,4v1.1h7.7V487.7z M348.1,482.6l-1.1-1.3c-2.9,4.6-5.5,6.2-8.2,6.2c-1.1,0-3.7-0.9-5.3-4.4
		c-1.1-3.3-1.3-7.9-1.3-11c0-8.4,1.3-16.1,6.4-16.1c4,0,6.8,5.7,7.9,10.1h0.9v-11.7h-0.9c-0.4,1.3-0.7,2.2-1.5,2.2
		c-0.9,0-3.5-2.4-6.8-2.4c-7.3,0-12.1,7.9-12.1,18.1c0,9.3,4.4,17.6,12.3,17.6C342.8,489.9,345.6,486.6,348.1,482.6 M317.8,504.9
		c-6.6,0-12.3,6.8-12.3,17.6c0,10.6,5.3,17.9,12.3,17.9c7.1,0,12.4-7.3,12.4-17.9C330.2,511.7,324.5,504.9,317.8,504.9 M317.8,538.9
		c-6,0-6.2-11.9-6.2-16.3c0-7.3,1.3-16.1,6.2-16.1c4.9,0,6.2,8.8,6.2,16.1C324,526.9,323.8,538.9,317.8,538.9 M397.9,538
		c-2.2,0-2.9-0.7-2.9-2.9V523c3.3,0,5.1,1.6,5.5,7.7h0.9v-17h-0.9c-0.4,6.4-2.2,7.7-5.5,7.5v-11.7c0-2,0.7-2.2,2.4-2.2
		c4.9,0,7.3,1.1,8,8.4h0.9v-10.1h-19.9v1.3c1.5,0,2.9,0.2,2.9,3.5v24.3c0,3.1-0.9,3.3-2.9,3.5v1.3h20.3l1.3-10.4H407
		C405,536.7,401.4,538,397.9,538 M343.2,505.5h-11v1.3c1.8,0.2,2.9,0.4,2.9,4.6v22.1c0,2.9-0.4,3.5-0.9,4c-0.2,0.2-0.4,0.2-2,0.6
		v1.3h11.5v-1.3c-2.4-0.4-3.1-0.4-3.1-4.6v-9.3c4.6,0,6.4-0.2,8.6-2c2.9-2.2,3.1-5.7,3.1-7.5C352.3,506.2,346.1,505.5,343.2,505.5
		 M340.6,522.5v-13.5c0-1.1,0.4-1.8,1.8-1.8c2.9,0,4,2,4,7.7C346.3,521.2,344.8,522.5,340.6,522.5 M270,538c-2.2,0-2.9-0.7-2.9-2.9
		V523c3.3,0,5.1,1.6,5.5,7.7h0.9v-17h-0.9c-0.4,6.4-2.2,7.7-5.5,7.5v-11.7c0-2,0.4-2.2,2.4-2.2c4.6,0,7.1,1.1,7.9,8.4h0.9v-10.1
		h-20.1v1.3c1.8,0,3.1,0.2,3.1,3.5v24.3c0,3.1-1.1,3.3-3.1,3.5v1.3h20.3l1.3-10.4H279C276.8,536.7,273.3,538,270,538 M234.7,488.1
		c1.1,0,2.6,1.8,6,1.8c6.4,0,8.6-6.2,8.6-10.6c0-5.5-2.6-8.4-3.7-9.3l-5.3-3.5c-2.9-2.2-3.5-3.3-3.5-6c0-3.3,2-4.9,3.7-4.9
		c4.2,0,6.2,5.7,6.8,9.3h0.9v-10.8h-0.9c-0.2,0.9-0.4,1.8-1.3,1.8c-0.9,0-2.6-1.8-5.3-1.8c-6.6,0-7.7,6.8-7.7,9.9
		c0,2.2,0,6.6,6,10.8l2.4,1.6c2.2,1.5,3.8,2.9,3.8,6.2c0,0.7-0.2,5.5-4.4,5.5c-4.2,0-6.4-5.5-7.1-10.6h-0.9v12.4h0.9
		C233.8,489,234,488.1,234.7,488.1 M293.4,538c-2.2,0-3.1-0.4-3.1-2.9v-23.6c0-4.4,1.1-4.6,3.5-4.6v-1.3h-12.1v1.3
		c1.5,0,3.1,0.2,3.1,3.5v24.3c0,3.1-1.1,3.3-3.1,3.5v1.3h20.1l1.5-11.5h-1.1C300.6,533.8,298.7,538,293.4,538 M249.5,506.9
		c2,0,3.1,0.2,3.1,2.2c0,1.1-0.4,2.4-0.7,3.5l-4.4,16.5l-4.6-15.9c-0.5-1.3-1.1-3.3-1.1-4.4c0-1.8,0.9-1.8,3.1-2v-1.3h-11.7v1.3
		c1.5,0.2,2,0.4,2.9,3.5l8.8,30h1.1l7.7-29.6c0.9-2.7,1.3-3.8,3.3-4v-1.3h-7.5V506.9z M425.9,506.9c2.9,0.2,3.3,2,3.3,4.9v15.2H429
		l-11.9-21.4h-7.3v1.3c0.5,0,0.9,0,2.9,3.5v23.8c0,3.3-0.9,3.8-3.1,4v1.3h7.9v-1.3c-2.6-0.4-3.3-1.3-3.3-4.9v-20.1l15.4,27.1h1.1
		v-29.6c0-2.4,0.2-3.5,2.6-4v-1.3h-7.5V506.9z M278.6,485.5c0-0.9,0.4-2.9,1.5-6.4h7.7c0.4,1.5,1.5,5.3,1.5,6.6c0,1.5-0.7,1.8-2.7,2
		v1.1h11v-1.1c-1.5,0-2.2-1.8-3.8-7.1l-7.7-26.5h-0.9l-7.7,27.6c-1.1,3.7-1.5,5.5-3.3,6v1.1h6.8v-1.1
		C280.1,487.5,278.6,487.5,278.6,485.5 M283.9,464.7l3.3,12.3h-6.6L283.9,464.7z"/>
	<path class="st2" d="M326.9,324.7v1.8c3.5,0.2,4.4,0.4,4.4,2.9c0,3.1-2.9,6.6-5.1,9.3l-9.9-14.1c4.4-1.3,9.9-4.2,9.9-9.5
		c0-3.8-2.6-7.9-10.8-7.9c-6,0-12.8,2.4-12.8,10.4c0,2.9,1.1,5.5,3.3,9.5c-4.2,2-12.8,6.2-12.8,14.8c0,7.7,6.2,11.5,12.6,11.5
		c6.6,0,11.9-3.8,14.6-5.7c2.4,2.9,5.1,6,9.9,6c1.1,0,4.9-0.4,7.5-3.7c0.2-0.2,2.9-4.6,2.9-4.6l-1.1-0.9c-0.9,1.5-2.2,2.6-3.8,2.6
		c-3.1,0-5.3-2.4-7.9-5.9c4.2-6,4.2-6,7.9-11.9c1.1-1.8,1.8-2.2,4.6-2.4v-1.8H326.9z M302.2,335.3c0-2.9,1.5-4.6,4.9-6.4l3.3,4.6
		c2.6,4,6,8.8,8.4,12.1c-1.8,1.3-4,2.7-6,2.7C306.6,348.3,302.2,339.7,302.2,335.3 M310.4,313c0-3.1,1.8-4,3.3-4c3.7,0,6,4.9,6,8.2
		c0,3.8-2.6,4.9-4.4,5.5C313.7,320.7,310.4,316.3,310.4,313"/>
	<path class="st3" d="M183.8,210.9h32.6c13.2,0,24.9,0,35.3,7.9c10.8,7.5,16.3,19.6,16.3,31.5c0,12.6-6,24.5-17,32.2
		c-12.6,8.4-26.9,9.1-41.5,9.1h-25.8l-0.7,4l79.4,100.6h28.2h42.8c36.6,0,65.7-8.2,90.4-33.3c21.4-21.2,32.2-49.4,32.2-77.9
		c0-30.9-11.2-60.9-35.3-82.7c-24.9-22.9-51.8-29.6-86.7-29.6l-26.5,0.2v37.5l21,0.2c22.9,0,41.5,2.2,58.4,17.9
		c15.5,14.6,21.6,36.6,21.6,56.5c0,18.3-6.6,38.8-20.3,52.9c-16.3,17-36.8,19.6-60.4,19.6h-37.9l-36.4-41.5
		c37.7-2.9,61.8-35.1,61.8-67.3c0-22.7-10.1-43.7-29.6-58.9c-19.6-15-40.8-17.2-65.3-17.2h-36.4v38.8L183.8,210.9z"/>
	<path class="st1" d="M203.4,94.2l-4.2-2.6c-3.5-2.4-5.7-4-6.6-5.3c-1.1-1.1-1.5-2.9-1.5-5.1c0-2,0.4-3.8,1.5-5.1
		c1.1-1.3,2.7-2,4.4-2c2.6,0,4.8,1.3,6.8,4c1.8,2.6,3.1,5.9,4,9.7h1.5V71.7h-1.8c-0.2,0.9-0.2,1.3-0.4,2c-0.4,0.4-0.7,0.7-1.3,0.7
		c-0.2,0-1.3-0.4-3.3-1.3c-2-0.7-3.7-1.1-5.9-1.1c-4,0-6.8,1.5-8.8,4.6c-2,3.1-2.8,6.4-2.8,9.9s0.7,6.4,2.2,8.6
		c1.5,2.2,4,4.6,7.5,7.1l3.5,2.2c2.2,1.5,3.7,2.7,4.4,3.5c1.1,1.5,1.8,3.3,1.8,5.5c0,1.8-0.4,3.7-1.5,5.3c-1.1,1.8-2.9,2.7-5.5,2.7
		c-2.4,0-4.9-1.3-6.8-3.8c-2-2.4-3.3-6.4-4.2-11.9h-1.8v18.1h1.8c0-0.7,0.2-1.3,0.4-1.8c0.2-0.4,0.7-0.7,1.1-0.7h0.7
		c0.2,0.2,0.4,0.2,0.7,0.2l1.1,0.7c1.1,0.4,2.2,0.9,3.5,1.1c1.1,0.4,2.2,0.4,3.3,0.4c4.8,0,8.4-1.5,10.6-4.8
		c2.2-3.3,3.3-6.8,3.3-10.6c0-4-1.1-7.3-3.1-10.1C206.7,96.8,205.1,95.5,203.4,94.2 M271.1,110.7L259,72.1h-1.6l-12.3,40.1
		c-0.9,3.3-1.8,5.3-2.2,6.2c-0.9,1.5-1.8,2.4-3.1,2.4v2H251v-2c-1.3,0-2.2-0.2-2.9-0.4c-1.1-0.4-1.5-1.1-1.5-2.2
		c0-0.9,0.2-2.2,0.7-4.2c0.2-0.9,0.7-2.9,1.5-5.7h12.4l1.3,4.4c0.4,1.1,0.7,2,0.9,2.6c0.2,1.1,0.4,2,0.4,2.7c0,1.1-0.4,2-0.9,2.2
		c-0.7,0.4-1.8,0.7-3.5,0.7v2h17.9v-2c-1.3,0-2.2-0.4-3.1-1.8C273.5,117.8,272.6,115.1,271.1,110.7 M249.7,105.4l4.9-17h0.4l5.3,17
		H249.7z M451.1,75.7c0.7-0.4,1.8-0.7,3.5-0.7v-2h-19.4v2c1.8,0,2.9,0.4,3.5,0.9c1.1,0.7,1.5,2.2,1.5,4.2v35.7
		c0,2.2-0.4,3.5-1.5,4.4c-0.7,0.4-1.8,0.7-3.5,0.7v2h19.4v-2c-1.8,0-3.1-0.2-4-1.1c-0.9-0.7-1.3-2-1.3-4V80.1
		C449.3,77.9,450,76.5,451.1,75.7 M340.6,119.6l-11-21c1.8-0.4,3.5-1.5,5.3-3.3c2.2-2.2,3.3-5.5,3.3-9.5c0-5.3-2.2-9-6.6-11.2
		c-2.4-0.9-5.3-1.5-9-1.5h-17.6v2c1.8,0.2,3.1,0.7,3.5,1.1c0.9,0.9,1.3,2.9,1.3,5.5v32.6c0,2.7-0.4,4.4-1.1,5.3
		c-0.7,0.9-2,1.3-3.7,1.3v2h18.5v-2c-1.8,0-3.1-0.4-3.7-1.3c-0.7-1.1-1.1-2.9-1.1-5.3V99.7h1.5l11.5,23.2h11.3v-1.8
		c-0.4-0.2-0.9-0.2-1.3-0.4C341.2,120.4,340.8,120.2,340.6,119.6 M326.2,95.5c-1.5,1.1-4,1.8-7.7,2V78.7c0-1.1,0.2-2,0.7-2.4
		c0.7-0.4,1.5-0.7,3.1-0.7c2.6,0,4.4,1.3,5.5,4.2c0.7,1.6,0.9,3.8,0.9,6.6C328.7,91.1,327.8,94.2,326.2,95.5 M386.7,73h-16.8v2
		c1.5,0.2,2.4,0.4,3.1,0.9c1.1,0.7,1.5,2,1.5,4V116c0,2-0.7,3.3-1.5,4.2c-0.7,0.2-1.8,0.7-3.1,0.7v2h17.4c6.4,0,11.2-2.6,15-7.9
		c3.3-4.6,4.9-10.1,4.9-16.8c0-7.5-1.5-13.5-4.9-17.9C398.8,75.4,393.5,73,386.7,73 M394.4,115.6c-2,3.1-4.6,4.6-7.9,4.6
		c-1.3,0-2-0.2-2.4-0.9c-0.2-0.7-0.4-1.8-0.7-3.3V79.9c0-1.6,0.2-2.7,0.5-3.1c0.4-0.9,1.3-1.3,2.9-1.3c4.4,0,7.5,3.1,9.3,9
		c1.1,3.7,1.8,8.2,1.8,13.5C397.7,106.8,396.6,112.5,394.4,115.6"/>
</g>
</svg>
